# xmcd
#
# Track frame offsets: 
#        182
#        12255
#        24032
#        33035
#        44322
#        54552
#        83422
#        94845
#        111872
#        129077
#        144685
#        158892
#        170160
#        182250
#
# Disc length: 2550 seconds
#
# Revision: 0
# Processed by: cddbd v1.5.1PL0 Copyright (c) Steve Scherf et al.
# Submitted via: ExactAudioCopy v0.95a5
#
DISCID=9f09f40e
DTITLE=Tennessee Ernie Ford - Take Me Home Country Roads
DYEAR=1993
DGENRE=Country
TTITLE0=Take Me Home Country Roads
TTITLE1=It's Such A Pretty World Today
TTITLE2=My Favorite Things
TTITLE3=If I Had A Hammer
TTITLE4=What A Wonderful World
TTITLE5=Bridge Over Troubled Waters
TTITLE6=It's Good To Be Home Again
TTITLE7=Everything Is Beautiful
TTITLE8=Green Green Grass Of Home
TTITLE9=It Was A Very Good Year
TTITLE10=Funny How Time Slips Away
TTITLE11=Sunday's Still A Special Day To Me
TTITLE12=Smiin' Through
TTITLE13=Home Sweet Home
EXTD=
EXTT0=
EXTT1=
EXTT2=
EXTT3=
EXTT4=
EXTT5=
EXTT6=
EXTT7=
EXTT8=
EXTT9=
EXTT10=
EXTT11=
EXTT12=
EXTT13=
PLAYORDER=
